<?xml version="1.0" encoding="UTF-8" standalone="no"?>
<!-- Created with Inkscape (http://www.inkscape.org/) -->

<svg
   xmlns:dc="http://purl.org/dc/elements/1.1/"
   xmlns:cc="http://creativecommons.org/ns#"
   xmlns:rdf="http://www.w3.org/1999/02/22-rdf-syntax-ns#"
   xmlns:svg="http://www.w3.org/2000/svg"
   xmlns="http://www.w3.org/2000/svg"
   xmlns:sodipodi="http://sodipodi.sourceforge.net/DTD/sodipodi-0.dtd"
   xmlns:inkscape="http://www.inkscape.org/namespaces/inkscape"
   version="1.1"
   id="svg10"
   xml:space="preserve"
   width="308.15948"
   height="270.04788"
   viewBox="0 0 308.15948 270.04788"
   sodipodi:docname="cz.4.svg"
   inkscape:version="0.92.2 (5c3e80d, 2017-08-06)"><metadata
     id="metadata16"><rdf:RDF><cc:Work
         rdf:about=""><dc:format>image/svg+xml</dc:format><dc:type
           rdf:resource="http://purl.org/dc/dcmitype/StillImage" /><dc:title></dc:title></cc:Work></rdf:RDF></metadata><defs
     id="defs14"><linearGradient
       x1="0"
       y1="0"
       x2="1"
       y2="0"
       gradientUnits="userSpaceOnUse"
       gradientTransform="matrix(0,-178.24989,230.60466,0,-15.9429,189.1216)"
       spreadMethod="pad"
       id="linearGradient52"><stop
         style="stop-opacity:1;stop-color:#5e0338"
         offset="0"
         id="stop34" /><stop
         style="stop-opacity:1;stop-color:#a80564"
         offset="0.04"
         id="stop36" /><stop
         style="stop-opacity:1;stop-color:#ff109a"
         offset="0.16"
         id="stop38" /><stop
         style="stop-opacity:1;stop-color:#fd3dac"
         offset="0.29"
         id="stop40" /><stop
         style="stop-opacity:1;stop-color:#fa96d0"
         offset="0.51"
         id="stop42" /><stop
         style="stop-opacity:1;stop-color:#ef4c9c"
         offset="0.71"
         id="stop44" /><stop
         style="stop-opacity:1;stop-color:#ea2b85"
         offset="0.86"
         id="stop46" /><stop
         style="stop-opacity:1;stop-color:#8a0342"
         offset="0.97"
         id="stop48" /><stop
         style="stop-opacity:1;stop-color:#571d32"
         offset="1"
         id="stop50" /></linearGradient></defs><sodipodi:namedview
     pagecolor="#ffffff"
     bordercolor="#666666"
     borderopacity="1"
     objecttolerance="10"
     gridtolerance="10"
     guidetolerance="10"
     inkscape:pageopacity="0"
     inkscape:pageshadow="2"
     inkscape:window-width="989"
     inkscape:window-height="672"
     id="namedview12"
     showgrid="false"
     inkscape:zoom="1.35112"
     inkscape:cx="154.07974"
     inkscape:cy="135.02394"
     inkscape:window-x="5"
     inkscape:window-y="13"
     inkscape:window-maximized="0"
     inkscape:current-layer="g18" /><g
     id="g18"
     inkscape:groupmode="layer"
     inkscape:label="cz.4"
     transform="matrix(1.3333333,0,0,-1.3333333,1.3333333,268.71453)"><g
       id="g62"
       transform="matrix(0.40175902,0,0,0.35485582,69.9221,64.409741)"><path
         inkscape:connector-curvature="0"
         id="path20"
         style="fill:#fefefe;fill-opacity:1;fill-rule:evenodd;stroke:#2b2a29;stroke-width:1.41729999;stroke-linecap:butt;stroke-linejoin:miter;stroke-miterlimit:22.92558479;stroke-dasharray:none;stroke-opacity:1"
         d="m 79.4424,157.3534 c -1.459,0.1406 -2.9282,0.2115 -4.4042,0.2115 -15.0798,0 -28.59,-7.3519 -37.933,-18.991 l -6.9585,-8.6686 -29.1931,28.7969 5.6849,7.0659 c 16.8196,20.9041 41.358,33.8097 68.3997,33.8097 13.7945,0 27.1641,-3.3727 39.2842,-9.7107 12.2408,6.4973 25.78,9.9601 39.759,9.9601 27.0417,0 51.5801,-12.9056 68.3997,-33.8097 l 5.6849,-7.0659 -29.1931,-28.7969 -6.9585,8.6687 c -9.343,11.639 -22.8532,18.991 -37.933,18.991 -1.5772,0 -3.1464,-0.0808 -4.7032,-0.2413 11.0066,-16.9667 16.6946,-37.0454 16.6946,-57.4299 0,-20.1968 -5.5834,-40.0907 -16.3956,-56.9608 1.459,-0.1406 2.9282,-0.2114 4.4042,-0.2114 14.4627,0 27.5148,6.7637 36.8272,17.6539 l 7.0991,8.3018 28.7654,-29.1614 -5.9491,-7.0025 C 204.0347,13.0003 180.1967,0.9581 154.0814,0.9581 c -13.7945,0 -27.1641,3.3727 -39.2842,9.7107 -12.2409,-6.4973 -25.78,-9.9601 -39.759,-9.9601 -26.1153,0 -49.9533,12.0421 -66.7426,31.8047 l -5.9491,7.0024 28.7654,29.1614 7.0991,-8.3018 c 9.3124,-10.8901 22.3645,-17.6539 36.8272,-17.6539 1.5772,0 3.1464,0.0808 4.7032,0.2412 -11.0066,16.9668 -16.6946,37.0455 -16.6946,57.43 0,20.1968 5.5834,40.0906 16.3956,56.9607 z m 35.0263,-20.7172 c -7.57,-10.4208 -11.471,-23.2713 -11.471,-36.2435 0,-13.0763 3.9657,-26.0303 11.6532,-36.493 7.57,10.4207 11.471,23.2713 11.471,36.2435 0,13.0762 -3.9657,26.0303 -11.6532,36.493 z" /><path
         inkscape:connector-curvature="0"
         id="path22"
         style="fill:#fdfcf9;fill-opacity:1;fill-rule:evenodd;stroke:#000000;stroke-width:1.41729999;stroke-linecap:butt;stroke-linejoin:miter;stroke-miterlimit:22.92558479;stroke-dasharray:none;stroke-opacity:1"
         d="m 75.0382,189.5431 c -24.1036,0 -45.7436,-11.6243 -60.5815,-30.0657 l 14.8232,-14.6219 c 11.1969,13.9487 27.546,22.7441 45.7583,22.7441 7.5665,0 14.811,-1.5208 21.4982,-4.2962 -14.4984,-16.1538 -23.455,-38.3766 -23.455,-62.9107 0,-24.7173 9.089,-47.0909 23.7787,-63.2739 -6.777,-2.8613 -14.133,-4.4319 -21.8219,-4.4319 -17.5164,0 -33.3099,8.1354 -44.4535,21.1668 L 15.9429,39.0104 C 30.7213,21.615 51.7277,10.7433 75.0382,10.7433 c 14.4354,0 27.987,4.172 39.7238,11.4778 11.6442,-7.1504 25.0492,-11.2283 39.3194,-11.2283 23.3104,0 44.3169,10.8717 59.0953,28.267 L 198.5349,54.1032 C 187.3913,41.0717 171.5978,32.9363 154.0814,32.9363 c -7.5665,0 -14.811,1.5208 -21.4982,4.2962 14.4983,16.1538 23.455,38.3766 23.455,62.9107 0,24.7173 -9.089,47.0908 -23.7787,63.2738 6.777,2.8613 14.1329,4.432 21.8219,4.432 18.2123,0 34.5614,-8.7953 45.7583,-22.7441 l 14.8232,14.622 c -14.838,18.4414 -36.4779,30.0657 -60.5815,30.0657 -14.4354,0 -27.987,-4.1721 -39.7239,-11.4778 -11.6441,7.1504 -25.0492,11.2283 -39.3193,11.2283 z m 39.3879,-37.8244 c 13.2874,-12.3738 21.7304,-30.8848 21.7304,-51.5755 0,-20.5517 -8.3296,-38.9537 -21.4631,-51.3261 -13.2874,12.3738 -21.7303,30.8849 -21.7303,51.5756 0,20.5517 8.3296,38.9537 21.463,51.326 z" /><g
         id="g24"><g
           id="g26"><g
             id="g32"><path
               inkscape:connector-curvature="0"
               id="path54"
               style="fill:url(#linearGradient52);fill-rule:evenodd;stroke:none"
               d="m 161.7797,189.1216 h -15.398 c -11.5532,-1.2036 -22.3997,-5.0865 -32.0253,-11.0781 -10.3496,6.3553 -22.0898,10.2833 -34.5926,11.0781 H 70.3225 C 48.1212,187.7148 28.3192,176.4366 14.4556,159.2062 l 14.8232,-14.622 c 11.1968,13.9487 27.5459,22.7441 45.7582,22.7441 7.5666,0 14.8111,-1.5208 21.4983,-4.2962 -14.4984,-16.1538 -23.455,-38.3766 -23.455,-62.9107 0,-24.7173 9.089,-47.0908 23.7787,-63.2738 -6.7771,-2.8613 -14.133,-4.432 -21.822,-4.432 -17.5164,0 -33.3099,8.1354 -44.4534,21.1669 L 15.9418,38.7391 C 29.073,23.2826 47.1214,12.9776 67.3339,10.872 h 15.4046 c 11.5523,1.2039 22.3977,5.0868 32.0224,11.0778 10.3482,-6.3547 22.0873,-10.2824 34.5884,-11.0778 h 9.4413 c 21.4211,1.3561 40.6091,11.9013 54.385,28.1166 L 198.5338,53.8319 C 187.3902,40.8005 171.5967,32.665 154.0803,32.665 c -7.5665,0 -14.811,1.5208 -21.4983,4.2962 14.4984,16.1538 23.455,38.3766 23.455,62.9107 0,24.7173 -9.089,47.0909 -23.7787,63.2739 6.7771,2.8613 14.133,4.4319 21.822,4.4319 18.2123,0 34.5614,-8.7953 45.7583,-22.744 l 14.8232,14.6219 c -13.2392,16.4546 -31.8941,27.4808 -52.8821,29.666 z M 114.425,151.4475 c 13.2874,-12.3738 21.7304,-30.8849 21.7304,-51.5756 0,-20.5517 -8.3296,-38.9537 -21.4631,-51.326 -13.2874,12.3738 -21.7304,30.8848 -21.7304,51.5755 0,20.5517 8.3296,38.9537 21.4631,51.3261 z" /></g></g></g></g></g></svg>